<?xml version="1.0" encoding="utf-8"?>
<!-- Generator: Adobe Illustrator 22.1.0, SVG Export Plug-In . SVG Version: 6.00 Build 0)  -->
<svg version="1.1" id="图层_1" xmlns="http://www.w3.org/2000/svg" xmlns:xlink="http://www.w3.org/1999/xlink" x="0px" y="0px"
	 viewBox="0 0 934.9 230.3" style="enable-background:new 0 0 934.9 230.3;" xml:space="preserve">
<g>
	<path d="M180.6,0c-1.4,19.8-3.3,54.3-5.7,103.6c-1.5,36.3-2.7,77.9-3.7,125.1c-12.8-10.1-32.4-25.1-58.6-45.1
		c-11.4-7.9-28.3-19.8-50.9-35.7l-1.5,77.9H12.9c-0.8-19.9-2.6-57.4-5.4-112.6C5,68.5,2.5,30.8,0,0h73.8l54.7,51.7
		c0-11.9-0.2-21.2-0.6-27.9c-0.3-6-0.9-13.9-1.8-23.8H180.6z"/>
	<path d="M495.4,0c-8.6,24.2-22,63.9-40.3,119.2c-7.9,25.7-18.5,61.2-31.6,106.6h-52.8c-4.9-20.6-13.7-55.7-26.5-105.4
		c-8,25.6-18.9,60.7-32.5,105.4h-52c-6.3-22.4-17-59.1-32.2-109.9C218.7,87.9,205.6,49.3,188.1,0h100.2c2.1,9.6,5.7,25.1,10.9,46.6
		l15.6,58.8c2.8-8.1,7.1-22.3,12.6-42.5C322.8,45.8,317,24.8,309.8,0h91.1c1.6,9.4,4.2,24.6,7.8,45.7c2.6,14,6.3,33.9,10.9,59.7
		l15.1-60c2.7-11.4,5.9-26.5,9.6-45.4H495.4z"/>
	<path d="M657.4,0l-6.3,93c-3.6-0.6-11.5-1.6-23.5-3.1c-8.2-0.8-17.2-1.3-27-1.5l-2.2,28.1c10.8,0.3,28.4,0.1,52.8-0.7
		c-1.1,3.6-2.8,10.4-5.1,20.3c-1.4,6-2.6,12.9-3.7,20.7c-2.8-0.7-9.9-1.6-21.3-2.6c-5.3-0.3-13.1-0.4-23.5-0.3l-1.5,32.8
		c7.3-0.1,20.9-0.7,40.6-1.9c3.7-0.3,9.8-1.5,18.4-3.5c-0.8,3-2.6,10.3-5.4,21.9c-1.4,6-3,13.5-5,22.6H512.9l-4.3-115.2
		C507.9,84.2,506,47.3,502.9,0H657.4z"/>
	<path d="M850.7,0c-1.4,19.8-3.3,54.3-5.7,103.6c-1.5,36.3-2.7,77.9-3.7,125.1c-12.8-10.1-32.4-25.1-58.6-45.1
		c-11.4-7.9-28.3-19.8-50.9-35.7l-1.5,77.9H683c-0.8-19.9-2.6-57.4-5.4-112.6C675.1,68.5,672.6,30.8,670,0h73.8l54.7,51.7
		c0-11.9-0.2-21.2-0.6-27.9c-0.3-6-0.9-13.9-1.8-23.8H850.7z"/>
	<path d="M934.9,203.1c0,7.7-3.3,14.2-9.8,19.4c-6.5,5.2-14.2,7.8-23,7.8c-9.2,0-17-2.6-23.4-7.8c-6.7-5.3-10-11.9-10-19.7
		c0-7.9,3.2-14.4,9.6-19.5c6.4-5,14.3-7.6,23.8-7.6c8.9,0,16.6,2.5,23.1,7.6C931.7,188.5,934.9,195.1,934.9,203.1z"/>
</g>
<g>
</g>
<g>
</g>
<g>
</g>
<g>
</g>
<g>
</g>
<g>
</g>
<g>
</g>
<g>
</g>
<g>
</g>
<g>
</g>
<g>
</g>
<g>
</g>
<g>
</g>
<g>
</g>
<g>
</g>
</svg>
