<svg aria-hidden="true" style="position: absolute; width: 0; height: 0; overflow: hidden;" version="1.1"
     xmlns="http://www.w3.org/2000/svg" xmlns:xlink="http://www.w3.org/1999/xlink">
  <defs>
    <symbol id="icon-add-outline" viewBox="0 0 20 20">
      <title>add-outline</title>
      <path
        d="M11 9h4v2h-4v4h-2v-4h-4v-2h4v-4h2v4zM10 20c-5.523 0-10-4.477-10-10s4.477-10 10-10v0c5.523 0 10 4.477 10 10s-4.477 10-10 10v0zM10 18c4.418 0 8-3.582 8-8s-3.582-8-8-8v0c-4.418 0-8 3.582-8 8s3.582 8 8 8v0z"></path>
    </symbol>
    <symbol id="icon-add-solid" viewBox="0 0 20 20">
      <title>add-solid</title>
      <path
        d="M11 9v-4h-2v4h-4v2h4v4h2v-4h4v-2h-4zM10 20c-5.523 0-10-4.477-10-10s4.477-10 10-10v0c5.523 0 10 4.477 10 10s-4.477 10-10 10v0z"></path>
    </symbol>
    <symbol id="icon-adjust" viewBox="0 0 20 20">
      <title>adjust</title>
      <path
        d="M10 2v16c4.418 0 8-3.582 8-8s-3.582-8-8-8v0zM10 20c-5.523 0-10-4.477-10-10s4.477-10 10-10v0c5.523 0 10 4.477 10 10s-4.477 10-10 10v0z"></path>
    </symbol>
    <symbol id="icon-airplane" viewBox="0 0 20 20">
      <title>airplane</title>
      <path
        d="M8.4 12h-5.6l-1.8 3h-1v-10h1l1.8 3h5.6l-2.4-8h2l4.8 8h5.2c1.105 0 2 0.895 2 2s-0.895 2-2 2v0h-5.2l-4.8 8h-2l2.4-8z"></path>
    </symbol>
    <symbol id="icon-album" viewBox="0 0 20 20">
      <title>album</title>
      <path
        d="M0 0h20v20h-20v-20zM10 18c4.418 0 8-3.582 8-8s-3.582-8-8-8v0c-4.418 0-8 3.582-8 8s3.582 8 8 8v0zM10 13c-1.657 0-3-1.343-3-3s1.343-3 3-3v0c1.657 0 3 1.343 3 3s-1.343 3-3 3v0z"></path>
    </symbol>
    <symbol id="icon-align-center" viewBox="0 0 20 20">
      <title>align-center</title>
      <path d="M1 1h18v2h-18v-2zM1 9h18v2h-18v-2zM1 17h18v2h-18v-2zM4 5h12v2h-12v-2zM4 13h12v2h-12v-2z"></path>
    </symbol>
    <symbol id="icon-align-justified" viewBox="0 0 20 20">
      <title>align-justified</title>
      <path d="M1 1h18v2h-18v-2zM1 9h18v2h-18v-2zM1 17h18v2h-18v-2zM1 5h18v2h-18v-2zM1 13h18v2h-18v-2z"></path>
    </symbol>
    <symbol id="icon-align-left" viewBox="0 0 20 20">
      <title>align-left</title>
      <path d="M1 1h18v2h-18v-2zM1 9h18v2h-18v-2zM1 17h18v2h-18v-2zM1 5h12v2h-12v-2zM1 13h12v2h-12v-2z"></path>
    </symbol>
    <symbol id="icon-align-right" viewBox="0 0 20 20">
      <title>align-right</title>
      <path d="M1 1h18v2h-18v-2zM1 9h18v2h-18v-2zM1 17h18v2h-18v-2zM7 5h12v2h-12v-2zM7 13h12v2h-12v-2z"></path>
    </symbol>
    <symbol id="icon-anchor" viewBox="0 0 20 20">
      <title>anchor</title>
      <path
        d="M4.34 15.66c1.216 1.219 2.825 2.046 4.62 2.276l0.040 0.004v-7.94h-4v-2h4v-2.17c-1.175-0.424-2-1.53-2-2.828 0-1.657 1.343-3 3-3s3 1.343 3 3c0 1.298-0.825 2.404-1.979 2.822l-0.021 0.007v2.17h4v2h-4v7.94c1.835-0.234 3.444-1.061 4.66-2.28l0-0-1.42-1.42h5.66l-2.83 2.83c-1.81 1.809-4.309 2.928-7.070 2.928s-5.26-1.119-7.070-2.928l-2.83-2.83h5.66l-1.42 1.42zM10 4c0.552 0 1-0.448 1-1s-0.448-1-1-1v0c-0.552 0-1 0.448-1 1s0.448 1 1 1v0z"></path>
    </symbol>
    <symbol id="icon-announcement" viewBox="0 0 20 20">
      <title>announcement</title>
      <path
        d="M3 6c0-1.1 0.9-2 2-2h8l4-4h2v16h-2l-4-4h-8c-1.105 0-2-0.895-2-2v0h-2v-4h2zM11 15v5h-3l-1.67-5h-1.33v-2h8v2h-2z"></path>
    </symbol>
    <symbol id="icon-arrow-thin-up" viewBox="0 0 20 20">
      <title>arrow-thin-up</title>
      <path
        d="M9 3.828l-6.071 6.071-1.414-1.414 8.485-8.485 8.485 8.485-1.414 1.414-6.071-6.071v16.172h-2v-16.172z"></path>
    </symbol>
    <symbol id="icon-arrow-up" viewBox="0 0 20 20">
      <title>arrow-up</title>
      <path
        d="M9 3.828l-6.071 6.071-1.414-1.414 8.485-8.485 8.485 8.485-1.414 1.414-6.071-6.071v16.172h-2v-16.172z"></path>
    </symbol>
    <symbol id="icon-artist" viewBox="0 0 20 20">
      <title>artist</title>
      <path
        d="M15.75 8l-3.74-3.75c-0.006-0.083-0.010-0.18-0.010-0.277 0-2.204 1.786-3.99 3.99-3.99 1.111 0 2.116 0.454 2.839 1.187l0 0c0.73 0.725 1.182 1.729 1.182 2.839 0 2.209-1.791 4-4 4-0.092 0-0.183-0.003-0.274-0.009l0.012 0.001zM1.85 15.3l9.2-9.19 2.83 2.83-9.2 9.2-2.82-2.84zM0.45 18.13l2.11-2.12 1.42 1.42-2.12 2.12-1.42-1.42zM10 15l2-2v7h-2v-5z"></path>
    </symbol>
    <symbol id="icon-at-symbol" viewBox="0 0 20 20">
      <title>at-symbol</title>
      <path
        d="M13.6 13.47c-0.91 0.953-2.191 1.545-3.61 1.545-2.756 0-4.99-2.234-4.99-4.99 0-0.009 0-0.018 0-0.026v0.001c0-2.761 2.239-5 5-5 1.131 0 2.175 0.376 3.013 1.009l-0.013-0.009v-1h2v6.5c0 0.828 0.672 1.5 1.5 1.5s1.5-0.672 1.5-1.5v0-1.5c-0.003-4.416-3.584-7.994-8-7.994-4.418 0-8 3.582-8 8s3.582 8 8 8c1.305 0 2.537-0.312 3.625-0.867l-0.045 0.021 0.9 1.79c-1.305 0.668-2.847 1.060-4.48 1.060-5.523 0-10-4.477-10-10s4.477-10 10-10c5.519 0 9.994 4.472 10 9.99v0.001h-0.010v1.5c0 0.003 0 0.007 0 0.010 0 1.933-1.567 3.5-3.5 3.5-1.202 0-2.262-0.606-2.892-1.528l-0.008-0.012zM10 13c1.657 0 3-1.343 3-3s-1.343-3-3-3v0c-1.657 0-3 1.343-3 3s1.343 3 3 3v0z"></path>
    </symbol>
    <symbol id="icon-attachment" viewBox="0 0 20 20">
      <title>attachment</title>
      <path
        d="M15 3h-8c-3.866 0-7 3.134-7 7s3.134 7 7 7v0h8v-2h-8c-2.761 0-5-2.239-5-5s2.239-5 5-5v0h8c1.657 0 3 1.343 3 3s-1.343 3-3 3v0h-8c-0.552 0-1-0.448-1-1s0.448-1 1-1v0h8v-2h-8c-1.657 0-3 1.343-3 3s1.343 3 3 3v0h8c2.761 0 5-2.239 5-5s-2.239-5-5-5v0z"></path>
    </symbol>
    <symbol id="icon-backspace" viewBox="0 0 20 20">
      <title>backspace</title>
      <path
        d="M0 10l7-7h13v14h-13l-7-7zM14.41 10l2.13-2.12-1.42-1.42-2.12 2.14-2.12-2.13-1.42 1.42 2.14 2.11-2.13 2.12 1.42 1.42 2.11-2.14 2.12 2.13 1.42-1.42-2.14-2.11z"></path>
    </symbol>
    <symbol id="icon-backward" viewBox="0 0 20 20">
      <title>backward</title>
      <path d="M19 5v10l-9-5 9-5zM10 5v10l-9-5 9-5z"></path>
    </symbol>
    <symbol id="icon-backward-step" viewBox="0 0 20 20">
      <title>backward-step</title>
      <path d="M4 5h3v10h-3v-10zM16 5v10l-9-5 9-5z"></path>
    </symbol>
    <symbol id="icon-badge" viewBox="0 0 20 20">
      <title>badge</title>
      <path
        d="M10 12c-3.314 0-6-2.686-6-6s2.686-6 6-6v0c3.314 0 6 2.686 6 6s-2.686 6-6 6v0zM10 9c1.657 0 3-1.343 3-3s-1.343-3-3-3v0c-1.657 0-3 1.343-3 3s1.343 3 3 3v0zM14 11.75v8.25l-4-4-4 4v-8.25c1.115 0.79 2.502 1.262 4 1.262s2.885-0.473 4.022-1.277l-0.022 0.015z"></path>
    </symbol>
    <symbol id="icon-battery-full" viewBox="0 0 20 20">
      <title>battery-full</title>
      <path
        d="M0 6c0-1.1 0.9-2 2-2h16c1.105 0 2 0.895 2 2v0 8c0 1.105-0.895 2-2 2v0h-16c-1.105 0-2-0.895-2-2v0-8zM2 6v8h16v-8h-16zM3 7h4v6h-4v-6zM8 7h4v6h-4v-6zM13 7h4v6h-4v-6z"></path>
    </symbol>
    <symbol id="icon-battery-half" viewBox="0 0 20 20">
      <title>battery-half</title>
      <path
        d="M0 6c0-1.1 0.9-2 2-2h16c1.105 0 2 0.895 2 2v0 8c0 1.105-0.895 2-2 2v0h-16c-1.105 0-2-0.895-2-2v0-8zM2 6v8h16v-8h-16zM3 7h4v6h-4v-6zM8 7h4v6h-4v-6z"></path>
    </symbol>
    <symbol id="icon-border-left" viewBox="0 0 20 20">
      <title>border-left</title>
      <path
        d="M1 1h2v18h-2v-18zM5 1h2v2h-2v-2zM5 9h2v2h-2v-2zM5 17h2v2h-2v-2zM9 1h2v2h-2v-2zM9 5h2v2h-2v-2zM9 9h2v2h-2v-2zM9 13h2v2h-2v-2zM9 17h2v2h-2v-2zM13 1h2v2h-2v-2zM13 9h2v2h-2v-2zM13 17h2v2h-2v-2zM17 1h2v2h-2v-2zM17 5h2v2h-2v-2zM17 9h2v2h-2v-2zM17 13h2v2h-2v-2zM17 17h2v2h-2v-2z"></path>
    </symbol>
    <symbol id="icon-border-none" viewBox="0 0 20 20">
      <title>border-none</title>
      <path
        d="M1 1h2v2h-2v-2zM1 5h2v2h-2v-2zM1 9h2v2h-2v-2zM1 13h2v2h-2v-2zM1 17h2v2h-2v-2zM5 1h2v2h-2v-2zM5 9h2v2h-2v-2zM5 17h2v2h-2v-2zM9 1h2v2h-2v-2zM9 5h2v2h-2v-2zM9 9h2v2h-2v-2zM9 13h2v2h-2v-2zM9 17h2v2h-2v-2zM13 1h2v2h-2v-2zM13 9h2v2h-2v-2zM13 17h2v2h-2v-2zM17 1h2v2h-2v-2zM17 5h2v2h-2v-2zM17 9h2v2h-2v-2zM17 13h2v2h-2v-2zM17 17h2v2h-2v-2z"></path>
    </symbol>
    <symbol id="icon-border-outer" viewBox="0 0 20 20">
      <title>border-outer</title>
      <path
        d="M2 19h-1v-18h18v18h-17zM3 17h14v-14h-14v14zM13 9h2v2h-2v-2zM9 9h2v2h-2v-2zM5 9h2v2h-2v-2zM9 5h2v2h-2v-2zM9 13h2v2h-2v-2z"></path>
    </symbol>
    <symbol id="icon-border-right" viewBox="0 0 20 20">
      <title>border-right</title>
      <path
        d="M5 1h2v2h-2v-2zM5 9h2v2h-2v-2zM5 17h2v2h-2v-2zM9 1h2v2h-2v-2zM9 5h2v2h-2v-2zM9 9h2v2h-2v-2zM9 13h2v2h-2v-2zM9 17h2v2h-2v-2zM13 1h2v2h-2v-2zM13 9h2v2h-2v-2zM13 17h2v2h-2v-2zM1 1h2v2h-2v-2zM1 5h2v2h-2v-2zM1 9h2v2h-2v-2zM1 13h2v2h-2v-2zM1 17h2v2h-2v-2zM17 1h2v18h-2v-18z"></path>
    </symbol>
    <symbol id="icon-border-top" viewBox="0 0 20 20">
      <title>border-top</title>
      <path
        d="M1 1h18v2h-18v-2zM1 5h2v2h-2v-2zM1 9h2v2h-2v-2zM1 13h2v2h-2v-2zM1 17h2v2h-2v-2zM5 9h2v2h-2v-2zM5 17h2v2h-2v-2zM9 5h2v2h-2v-2zM9 9h2v2h-2v-2zM9 13h2v2h-2v-2zM9 17h2v2h-2v-2zM13 9h2v2h-2v-2zM13 17h2v2h-2v-2zM17 5h2v2h-2v-2zM17 9h2v2h-2v-2zM17 13h2v2h-2v-2zM17 17h2v2h-2v-2z"></path>
    </symbol>
    <symbol id="icon-border-vertical" viewBox="0 0 20 20">
      <title>border-vertical</title>
      <path
        d="M1 1h2v2h-2v-2zM1 5h2v2h-2v-2zM1 9h2v2h-2v-2zM1 13h2v2h-2v-2zM1 17h2v2h-2v-2zM5 1h2v2h-2v-2zM5 9h2v2h-2v-2zM5 17h2v2h-2v-2zM9 1h2v18h-2v-18zM13 1h2v2h-2v-2zM13 9h2v2h-2v-2zM13 17h2v2h-2v-2zM17 1h2v2h-2v-2zM17 5h2v2h-2v-2zM17 9h2v2h-2v-2zM17 13h2v2h-2v-2zM17 17h2v2h-2v-2z"></path>
    </symbol>
    <symbol id="icon-box" viewBox="0 0 20 20">
      <title>box</title>
      <path
        d="M0 2c0-1.1 0.9-2 2-2h16c1.105 0 2 0.895 2 2v0 2h-20v-2zM1 5h18v13c0 1.105-0.895 2-2 2v0h-14c-1.105 0-2-0.895-2-2v0-13zM7 7v2h6v-2h-6z"></path>
    </symbol>
    <symbol id="icon-brightness-down" viewBox="0 0 20 20">
      <title>brightness-down</title>
      <path
        d="M10 13c-1.657 0-3-1.343-3-3s1.343-3 3-3v0c1.657 0 3 1.343 3 3s-1.343 3-3 3v0zM9 4c0-0.552 0.448-1 1-1s1 0.448 1 1v0c0 0.552-0.448 1-1 1s-1-0.448-1-1v0zM13.54 5.050c0.184-0.215 0.456-0.35 0.76-0.35 0.552 0 1 0.448 1 1 0 0.303-0.135 0.575-0.348 0.758l-0.001 0.001c-0.184 0.215-0.456 0.35-0.76 0.35-0.552 0-1-0.448-1-1 0-0.303 0.135-0.575 0.348-0.758l0.001-0.001zM16 9c0.552 0 1 0.448 1 1s-0.448 1-1 1v0c-0.552 0-1-0.448-1-1s0.448-1 1-1v0zM14.95 13.54c0.215 0.184 0.35 0.456 0.35 0.76 0 0.552-0.448 1-1 1-0.303 0-0.575-0.135-0.758-0.348l-0.001-0.001c-0.215-0.184-0.35-0.456-0.35-0.76 0-0.552 0.448-1 1-1 0.303 0 0.575 0.135 0.758 0.348l0.001 0.001zM11 16c0 0.552-0.448 1-1 1s-1-0.448-1-1v0c0-0.552 0.448-1 1-1s1 0.448 1 1v0zM6.46 14.95c-0.184 0.215-0.456 0.35-0.76 0.35-0.552 0-1-0.448-1-1 0-0.303 0.135-0.575 0.348-0.758l0.001-0.001c0.184-0.215 0.456-0.35 0.76-0.35 0.552 0 1 0.448 1 1 0 0.303-0.135 0.575-0.348 0.758l-0.001 0.001zM4 11c-0.552 0-1-0.448-1-1s0.448-1 1-1v0c0.552 0 1 0.448 1 1s-0.448 1-1 1v0zM5.050 6.46c-0.215-0.184-0.35-0.456-0.35-0.76 0-0.552 0.448-1 1-1 0.303 0 0.575 0.135 0.758 0.348l0.001 0.001c0.215 0.184 0.35 0.456 0.35 0.76 0 0.552-0.448 1-1 1-0.303 0-0.575-0.135-0.758-0.348l-0.001-0.001z"></path>
    </symbol>
    <symbol id="icon-brightness-up" viewBox="0 0 20 20">
      <title>brightness-up</title>
      <path
        d="M10 14c-2.209 0-4-1.791-4-4s1.791-4 4-4v0c2.209 0 4 1.791 4 4s-1.791 4-4 4v0zM9 1c0-0.552 0.448-1 1-1s1 0.448 1 1v0 2c0 0.552-0.448 1-1 1s-1-0.448-1-1v0-2zM15.65 2.94c0.184-0.215 0.456-0.35 0.76-0.35 0.552 0 1 0.448 1 1 0 0.303-0.135 0.575-0.348 0.758l-0.001 0.001-1.4 1.4c-0.184 0.215-0.456 0.35-0.76 0.35-0.552 0-1-0.448-1-1 0-0.303 0.135-0.575 0.348-0.758l0.001-0.001 1.4-1.4zM18.99 9c0.552 0 1 0.448 1 1s-0.448 1-1 1v0h-1.98c-0.552 0-1-0.448-1-1s0.448-1 1-1v0h1.98zM17.060 15.65c0.215 0.184 0.35 0.456 0.35 0.76 0 0.552-0.448 1-1 1-0.303 0-0.575-0.135-0.758-0.348l-0.001-0.001-1.4-1.4c-0.215-0.184-0.35-0.456-0.35-0.76 0-0.552 0.448-1 1-1 0.303 0 0.575 0.135 0.758 0.348l0.001 0.001 1.4 1.4zM11 18.99c0 0.552-0.448 1-1 1s-1-0.448-1-1v0-1.98c0-0.552 0.448-1 1-1s1 0.448 1 1v0 1.98zM4.35 17.060c-0.184 0.215-0.456 0.35-0.76 0.35-0.552 0-1-0.448-1-1 0-0.303 0.135-0.575 0.348-0.758l0.001-0.001 1.4-1.4c0.184-0.215 0.456-0.35 0.76-0.35 0.552 0 1 0.448 1 1 0 0.303-0.135 0.575-0.348 0.758l-0.001 0.001-1.4 1.4zM1.010 11c-0.552 0-1-0.448-1-1s0.448-1 1-1v0h1.98c0.552 0 1 0.448 1 1s-0.448 1-1 1v0h-1.98zM2.94 4.35c-0.215-0.184-0.35-0.456-0.35-0.76 0-0.552 0.448-1 1-1 0.303 0 0.575 0.135 0.758 0.348l0.001 0.001 1.4 1.4c0.215 0.184 0.35 0.456 0.35 0.76 0 0.552-0.448 1-1 1-0.303 0-0.575-0.135-0.758-0.348l-0.001-0.001-1.4-1.4z"></path>
    </symbol>
    <symbol id="icon-browser-window" viewBox="0 0 20 20">
      <title>browser-window</title>
      <path
        d="M0 3c0-1.1 0.9-2 2-2h16c1.105 0 2 0.895 2 2v0 14c0 1.105-0.895 2-2 2v0h-16c-1.105 0-2-0.895-2-2v0-14zM2 5v12h16v-12h-16z"></path>
    </symbol>
    <symbol id="icon-browser-window-new" viewBox="0 0 20 20">
      <title>browser-window-new</title>
      <path
        d="M9 10v-2h2v2h2v2h-2v2h-2v-2h-2v-2h2zM0 3c0-1.1 0.9-2 2-2h16c1.105 0 2 0.895 2 2v0 14c0 1.105-0.895 2-2 2v0h-16c-1.105 0-2-0.895-2-2v0-14zM2 5v12h16v-12h-16z"></path>
    </symbol>
    <symbol id="icon-cheveron-outline-left" viewBox="0 0 20 20">
      <title>cheveron-outline-left</title>
      <path
        d="M10 20c-5.523 0-10-4.477-10-10s4.477-10 10-10v0c5.523 0 10 4.477 10 10s-4.477 10-10 10v0zM18 10c0-4.418-3.582-8-8-8s-8 3.582-8 8v0c0 4.418 3.582 8 8 8s8-3.582 8-8v0zM7.46 9.3l3.54-3.55 1.41 1.41-2.81 2.84 2.82 2.83-1.42 1.41-4.24-4.24 0.7-0.7z"></path>
    </symbol>
    <symbol id="icon-cheveron-outline-right" viewBox="0 0 20 20">
      <title>cheveron-outline-right</title>
      <path
        d="M10 0c5.523 0 10 4.477 10 10s-4.477 10-10 10v0c-5.523 0-10-4.477-10-10s4.477-10 10-10v0zM2 10c0 4.418 3.582 8 8 8s8-3.582 8-8v0c0-4.418-3.582-8-8-8s-8 3.582-8 8v0zM12.54 10.7l-3.54 3.55-1.41-1.41 2.81-2.84-2.8-2.83 1.4-1.41 4.24 4.24-0.7 0.7z"></path>
    </symbol>
    <symbol id="icon-cheveron-outline-up" viewBox="0 0 20 20">
      <title>cheveron-outline-up</title>
      <path
        d="M0 10c0-5.523 4.477-10 10-10s10 4.477 10 10v0c0 5.523-4.477 10-10 10s-10-4.477-10-10v0zM10 18c4.418 0 8-3.582 8-8s-3.582-8-8-8v0c-4.418 0-8 3.582-8 8s3.582 8 8 8v0zM10.7 7.46l3.55 3.54-1.41 1.41-2.84-2.81-2.83 2.8-1.41-1.4 4.24-4.24 0.7 0.7z"></path>
    </symbol>
    <symbol id="icon-cheveron-right" viewBox="0 0 20 20">
      <title>cheveron-right</title>
      <path d="M12.95 10.707l0.707-0.707-5.657-5.657-1.414 1.414 4.242 4.243-4.242 4.243 1.414 1.414 4.95-4.95z"></path>
    </symbol>
    <symbol id="icon-cheveron-up" viewBox="0 0 20 20">
      <title>cheveron-up</title>
      <path d="M10.707 7.050l-0.707-0.707-5.657 5.657 1.414 1.414 4.243-4.242 4.243 4.242 1.414-1.414z"></path>
    </symbol>
    <symbol id="icon-clipboard" viewBox="0 0 20 20">
      <title>clipboard</title>
      <path
        d="M7.030 2.6c0.215-1.465 1.462-2.577 2.97-2.577s2.755 1.112 2.968 2.561l0.002 0.016 2.030 0.4v1h1c1.105 0 2 0.895 2 2v0 12c0 1.105-0.895 2-2 2v0h-12c-1.105 0-2-0.895-2-2v0-12c0-1.1 0.9-2 2-2h1v-1l2.030-0.4zM5 6h-1v12h12v-12h-1v1h-10v-1zM10 4c0.552 0 1-0.448 1-1s-0.448-1-1-1v0c-0.552 0-1 0.448-1 1s0.448 1 1 1v0z"></path>
    </symbol>
    <symbol id="icon-close" viewBox="0 0 20 20">
      <title>close</title>
      <path
        d="M10 8.586l-7.071-7.071-1.414 1.414 7.071 7.071-7.071 7.071 1.414 1.414 7.071-7.071 7.071 7.071 1.414-1.414-7.071-7.071 7.071-7.071-1.414-1.414-7.071 7.071z"></path>
    </symbol>
    <symbol id="icon-close-outline" viewBox="0 0 20 20">
      <title>close-outline</title>
      <path
        d="M2.93 17.070c-1.884-1.821-3.053-4.37-3.053-7.193 0-5.523 4.477-10 10-10 2.823 0 5.372 1.169 7.19 3.050l0.003 0.003c1.737 1.796 2.807 4.247 2.807 6.947 0 5.523-4.477 10-10 10-2.7 0-5.151-1.070-6.95-2.81l0.003 0.003zM4.34 15.66c1.449 1.449 3.45 2.344 5.66 2.344 4.421 0 8.004-3.584 8.004-8.004 0-2.21-0.896-4.211-2.344-5.66v0c-1.449-1.449-3.45-2.344-5.66-2.344-4.421 0-8.004 3.584-8.004 8.004 0 2.21 0.896 4.211 2.344 5.66v0zM14.24 7.17l-2.83 2.83 2.83 2.83-1.41 1.41-2.83-2.83-2.83 2.83-1.41-1.41 2.83-2.83-2.83-2.83 1.41-1.41 2.83 2.83 2.83-2.83 1.41 1.41z"></path>
    </symbol>
    <symbol id="icon-close-solid" viewBox="0 0 20 20">
      <title>close-solid</title>
      <path
        d="M2.93 17.070c-1.884-1.821-3.053-4.37-3.053-7.193 0-5.523 4.477-10 10-10 2.823 0 5.372 1.169 7.19 3.050l0.003 0.003c1.737 1.796 2.807 4.247 2.807 6.947 0 5.523-4.477 10-10 10-2.7 0-5.151-1.070-6.95-2.81l0.003 0.003zM11.4 10l2.83-2.83-1.41-1.41-2.82 2.83-2.83-2.83-1.41 1.41 2.83 2.83-2.83 2.83 1.41 1.41 2.83-2.83 2.83 2.83 1.41-1.41-2.83-2.83z"></path>
    </symbol>
    <symbol id="icon-cloud" viewBox="0 0 20 20">
      <title>cloud</title>
      <path
        d="M16.88 9.1c1.795 0.419 3.111 2.006 3.111 3.9 0 2.206-1.786 3.995-3.991 4h-11c-0.001 0-0.003 0-0.005 0-2.761 0-5-2.239-5-5 0-2.409 1.704-4.421 3.973-4.894l0.032-0.006v-0.1c0-0.001 0-0.002 0-0.004 0-1.657 1.343-3 3-3 0.56 0 1.085 0.154 1.534 0.421l-0.014-0.008c0.899-0.889 2.136-1.438 3.5-1.438 2.75 0 4.98 2.23 4.98 4.98 0 0.017-0 0.033-0 0.050l0-0.003c0 0.38-0.040 0.74-0.12 1.1z"></path>
    </symbol>
    <symbol id="icon-cloud-upload" viewBox="0 0 20 20">
      <title>cloud-upload</title>
      <path
        d="M16.88 9.1c1.795 0.419 3.111 2.006 3.111 3.9 0 2.206-1.786 3.995-3.991 4h-11c-0.001 0-0.003 0-0.005 0-2.761 0-5-2.239-5-5 0-2.409 1.704-4.421 3.973-4.894l0.032-0.006v-0.1c0-0.001 0-0.002 0-0.004 0-1.657 1.343-3 3-3 0.56 0 1.085 0.154 1.534 0.421l-0.014-0.008c0.899-0.889 2.136-1.438 3.5-1.438 2.75 0 4.98 2.23 4.98 4.98 0 0.017-0 0.033-0 0.050l0-0.003c0 0.38-0.040 0.74-0.12 1.1zM11 11h3l-4-4-4 4h3v3h2v-3z"></path>
    </symbol>
    <symbol id="icon-document" viewBox="0 0 20 20">
      <title>document</title>
      <path d="M4 18h12v-12h-4v-4h-8v16zM2 19v-19h12l4 4v16h-16v-1z"></path>
    </symbol>
    <symbol id="icon-document-add" viewBox="0 0 20 20">
      <title>document-add</title>
      <path d="M9 10v-2h2v2h2v2h-2v2h-2v-2h-2v-2h2zM4 18h12v-12h-4v-4h-8v16zM2 19v-19h12l4 4v16h-16v-1z"></path>
    </symbol>
    <symbol id="icon-dots-horizontal-double" viewBox="0 0 20 20">
      <title>dots-horizontal-double</title>
      <path
        d="M10 9c-1.105 0-2-0.895-2-2s0.895-2 2-2v0c1.105 0 2 0.895 2 2s-0.895 2-2 2v0zM10 15c-1.105 0-2-0.895-2-2s0.895-2 2-2v0c1.105 0 2 0.895 2 2s-0.895 2-2 2v0z"></path>
    </symbol>
    <symbol id="icon-dots-horizontal-triple" viewBox="0 0 20 20">
      <title>dots-horizontal-triple</title>
      <path
        d="M10 12c-1.105 0-2-0.895-2-2s0.895-2 2-2v0c1.105 0 2 0.895 2 2s-0.895 2-2 2v0zM10 6c-1.105 0-2-0.895-2-2s0.895-2 2-2v0c1.105 0 2 0.895 2 2s-0.895 2-2 2v0zM10 18c-1.105 0-2-0.895-2-2s0.895-2 2-2v0c1.105 0 2 0.895 2 2s-0.895 2-2 2v0z"></path>
    </symbol>
    <symbol id="icon-download" viewBox="0 0 20 20">
      <title>download</title>
      <path d="M13 8v-6h-6v6h-5l8 8 8-8h-5zM0 18h20v2h-20v-2z"></path>
    </symbol>
    <symbol id="icon-duplicate" viewBox="0 0 20 20">
      <title>duplicate</title>
      <path
        d="M6 6v-4c0-1.1 0.9-2 2-2h10c1.105 0 2 0.895 2 2v0 10c0 1.105-0.895 2-2 2v0h-4v4c0 1.105-0.895 2-2 2v0h-10c-1.105 0-2-0.895-2-2v0-10c0-1.1 0.9-2 2-2h4zM8 6h4c1.105 0 2 0.895 2 2v0 4h4v-10h-10v4zM2 8v10h10v-10h-10zM6 12v-2h2v2h2v2h-2v2h-2v-2h-2v-2h2z"></path>
    </symbol>
    <symbol id="icon-edit-copy" viewBox="0 0 20 20">
      <title>edit-copy</title>
      <path
        d="M6 6v-4c0-1.1 0.9-2 2-2h10c1.105 0 2 0.895 2 2v0 10c0 1.105-0.895 2-2 2v0h-4v4c0 1.105-0.895 2-2 2v0h-10c-1.105 0-2-0.895-2-2v0-10c0-1.1 0.9-2 2-2h4zM8 6h4c1.105 0 2 0.895 2 2v0 4h4v-10h-10v4zM2 8v10h10v-10h-10z"></path>
    </symbol>
    <symbol id="icon-edit-crop" viewBox="0 0 20 20">
      <title>edit-crop</title>
      <path
        d="M14 16h-8c-1.105 0-2-0.895-2-2v0-8h-4v-2h4v-4h2v14h14v2h-4v4h-2v-4zM14 13v-7h-7v-2h7c1.105 0 2 0.895 2 2v0 7h-2z"></path>
    </symbol>
    <symbol id="icon-edit-cut" viewBox="0 0 20 20">
      <title>edit-cut</title>
      <path
        d="M9.77 11.5l5.34 3.91c0.44 0.33 1.24 0.59 1.79 0.59h3.1l-13.11-9.62c0.072-0.265 0.114-0.57 0.114-0.885 0-1.933-1.567-3.5-3.5-3.5s-3.5 1.567-3.5 3.5c0 1.933 1.567 3.5 3.5 3.5 0.747 0 1.439-0.234 2.008-0.633l-0.011 0.007 2.23 1.63-2.23 1.63c-0.56-0.396-1.256-0.634-2.009-0.634-1.933 0-3.5 1.567-3.5 3.5s1.567 3.5 3.5 3.5c1.933 0 3.5-1.567 3.5-3.5 0-0.311-0.041-0.613-0.117-0.901l0.006 0.024 2.9-2.12zM3.5 7c-0.828 0-1.5-0.672-1.5-1.5s0.672-1.5 1.5-1.5v0c0.828 0 1.5 0.672 1.5 1.5s-0.672 1.5-1.5 1.5v0zM3.5 16c-0.828 0-1.5-0.672-1.5-1.5s0.672-1.5 1.5-1.5v0c0.828 0 1.5 0.672 1.5 1.5s-0.672 1.5-1.5 1.5v0zM15.1 4.59c0.507-0.343 1.126-0.559 1.792-0.59l0.008-0h3.1l-7.5 5.5-2.050-1.5 4.65-3.41z"></path>
    </symbol>
    <symbol id="icon-edit-pencil" viewBox="0 0 20 20">
      <title>edit-pencil</title>
      <path d="M12.3 3.7l4 4-12.3 12.3h-4v-4l12.3-12.3zM13.7 2.3l2.3-2.3 4 4-2.3 2.3-4-4z"></path>
    </symbol>
    <symbol id="icon-education" viewBox="0 0 20 20">
      <title>education</title>
      <path
        d="M3.33 8l6.67 4 10-6-10-6-10 6h10v2h-6.67zM0 8v8l2-2.22v-4.58l-2-1.2zM10 20l-7-4.2v-6l7 4.2 7-4.2v6l-7 4.2z"></path>
    </symbol>
    <symbol id="icon-format-font-size" viewBox="0 0 20 20">
      <title>format-font-size</title>
      <path d="M16 9v8h-2v-8h-4v-2h10v2h-4zM8 5v12h-2v-12h-6v-2h15v2h-7z"></path>
    </symbol>
    <symbol id="icon-format-italic" viewBox="0 0 20 20">
      <title>format-italic</title>
      <path d="M8 1h9v2h-9v-2zM11 3h3l-6 14h-3l6-14zM2 17h9v2h-9v-2z"></path>
    </symbol>
    <symbol id="icon-format-text-size" viewBox="0 0 20 20">
      <title>format-text-size</title>
      <path d="M16 9v8h-2v-8h-4v-2h10v2h-4zM8 5v12h-2v-12h-6v-2h15v2h-7z"></path>
    </symbol>
    <symbol id="icon-format-underline" viewBox="0 0 20 20">
      <title>format-underline</title>
      <path
        d="M16 9c0 3.314-2.686 6-6 6s-6-2.686-6-6v0-8h3v8c0 1.657 1.343 3 3 3s3-1.343 3-3v0-8h3v8zM2 17h16v2h-16v-2z"></path>
    </symbol>
    <symbol id="icon-forward" viewBox="0 0 20 20">
      <title>forward</title>
      <path d="M1 5l9 5-9 5v-10zM10 5l9 5-9 5v-10z"></path>
    </symbol>
    <symbol id="icon-forward-step" viewBox="0 0 20 20">
      <title>forward-step</title>
      <path d="M13 5h3v10h-3v-10zM4 5l9 5-9 5v-10z"></path>
    </symbol>
    <symbol id="icon-gift" viewBox="0 0 20 20">
      <title>gift</title>
      <path
        d="M14.83 4h5.17v6h-1v10h-18v-10h-1v-6h5.17c-0.11-0.3-0.174-0.646-0.174-1.008 0-1.657 1.343-3 3-3 0.772 0 1.475 0.291 2.007 0.77l-0.003-0.002c0.529-0.476 1.233-0.768 2.004-0.768 1.657 0 3 1.343 3 3 0 0.361-0.064 0.708-0.181 1.029l0.007-0.021zM8 10h-5v8h5v-8zM12 10v8h5v-8h-5zM8 6h-6v2h6v-2zM12 6v2h6v-2h-6zM8 4c0.552 0 1-0.448 1-1s-0.448-1-1-1v0c-0.552 0-1 0.448-1 1s0.448 1 1 1v0zM12 4c0.552 0 1-0.448 1-1s-0.448-1-1-1v0c-0.552 0-1 0.448-1 1s0.448 1 1 1v0z"></path>
    </symbol>
    <symbol id="icon-globe" viewBox="0 0 20 20">
      <title>globe</title>
      <path
        d="M10 20c-5.523 0-10-4.477-10-10s4.477-10 10-10v0c5.523 0 10 4.477 10 10s-4.477 10-10 10v0zM12 17.75c1.602-0.424 2.964-1.287 3.993-2.451l0.007-0.009v-6.29c-1.105 0-2-0.895-2-2v0-3.93c-0.864-0.506-1.879-0.86-2.961-0.996l-0.039-0.004v0.93c0 1.105-0.895 2-2 2v0 1c0 1.105-0.895 2-2 2v0 2h3c1.105 0 2 0.895 2 2v0 5.75zM8 17.75v-2.75c-1.105 0-2-0.895-2-2v0-1h-0.5c-0.828 0-1.5-0.672-1.5-1.5v0-2.5h-1.75c-0.16 0.599-0.253 1.287-0.253 1.996 0 3.71 2.523 6.832 5.947 7.742l0.056 0.013z"></path>
    </symbol>
    <symbol id="icon-hand-stop" viewBox="0 0 20 20">
      <title>hand-stop</title>
      <path
        d="M17 16c0 2.209-1.791 4-4 4v0h-6c0 0 0 0-0 0-2.209 0-4-1.791-4-4 0-0.004 0-0.007 0-0.011v0.001-11.99c0-0.552 0.448-1 1-1v0c0.552 0 1 0.448 1 1v0 6h1v-8c0-0.552 0.448-1 1-1v0c0.552 0 1 0.448 1 1v0 8h1v-9c0-0.552 0.448-1 1-1s1 0.448 1 1v0 9h1v-8c0-0.552 0.448-1 1-1v0c0.552 0 1 0.448 1 1v0 13h1v-6c0-0.552 0.448-1 1-1v0h1v8z"></path>
    </symbol>
    <symbol id="icon-hard-drive" viewBox="0 0 20 20">
      <title>hard-drive</title>
      <path
        d="M2 2c0-1.1 0.9-2 2-2h12c1.105 0 2 0.895 2 2v0 16c0 1.105-0.895 2-2 2v0h-12c-1.105 0-2-0.895-2-2v0-16zM12.4 7.6c-0.693-0.386-1.52-0.614-2.4-0.614-2.761 0-5 2.239-5 5s2.239 5 5 5c2.757 0 4.992-2.231 5-4.986v-7.001l-2.6 2.6zM10 14c-1.105 0-2-0.895-2-2s0.895-2 2-2v0c1.105 0 2 0.895 2 2s-0.895 2-2 2v0zM6 3v2h4v-2h-4zM4 3c0.552 0 1-0.448 1-1s-0.448-1-1-1v0c-0.552 0-1 0.448-1 1s0.448 1 1 1v0zM4 19c0.552 0 1-0.448 1-1s-0.448-1-1-1v0c-0.552 0-1 0.448-1 1s0.448 1 1 1v0zM16 19c0.552 0 1-0.448 1-1s-0.448-1-1-1v0c-0.552 0-1 0.448-1 1s0.448 1 1 1v0zM16 3c0.552 0 1-0.448 1-1s-0.448-1-1-1v0c-0.552 0-1 0.448-1 1s0.448 1 1 1v0z"></path>
    </symbol>
    <symbol id="icon-headphones" viewBox="0 0 20 20">
      <title>headphones</title>
      <path
        d="M16 8c0-3.314-2.686-6-6-6s-6 2.686-6 6v0 11h-2c-1.105 0-2-0.895-2-2v0-4c0-1.105 0.895-2 2-2v0-3c0-4.418 3.582-8 8-8s8 3.582 8 8v0 3c1.105 0 2 0.895 2 2v0 4c0 1.105-0.895 2-2 2v0h-2v-11zM12 10h3v10h-3v-10zM5 10h3v10h-3v-10z"></path>
    </symbol>
    <symbol id="icon-library" viewBox="0 0 20 20">
      <title>library</title>
      <path
        d="M0 6l10-6 10 6v2h-20v-2zM0 18h20v2h-20v-2zM2 16h16v2h-16v-2zM2 8h4v8h-4v-8zM8 8h4v8h-4v-8zM14 8h4v8h-4v-8z"></path>
    </symbol>
    <symbol id="icon-light-bulb" viewBox="0 0 20 20">
      <title>light-bulb</title>
      <path
        d="M7 13.33c-2.384-1.15-4-3.549-4-6.325 0-3.866 3.134-7 7-7s7 3.134 7 7c0 2.776-1.616 5.174-3.958 6.306l-0.042 0.018v2.67h-6v-2.67zM7 17h6v1.5c0 0.83-0.67 1.5-1.5 1.5h-3c-0.828 0-1.5-0.672-1.5-1.5v0-1.5zM9 11.9v2.1h2v-2.1c2.299-0.481 4-2.492 4-4.899 0-2.761-2.239-5-5-5s-5 2.239-5 5c0 2.407 1.701 4.417 3.967 4.893l0.033 0.006z"></path>
    </symbol>
    <symbol id="icon-link" viewBox="0 0 20 20">
      <title>link</title>
      <path
        d="M9.26 13c-0.167-0.286-0.266-0.63-0.266-0.996 0-0.374 0.103-0.724 0.281-1.023l-0.005 0.009c1.549-0.13 2.757-1.419 2.757-2.99 0-1.657-1.343-3-3-3-0.009 0-0.019 0-0.028 0l0.001-0h-4c-1.657 0-3 1.343-3 3s1.343 3 3 3v0h0.080c-0.053 0.301-0.083 0.647-0.083 1s0.030 0.699 0.088 1.036l-0.005-0.036h-0.080c-2.761 0-5-2.239-5-5s2.239-5 5-5v0h4c0.039-0.001 0.084-0.002 0.13-0.002 2.762 0 5.002 2.239 5.002 5.002 0 2.717-2.166 4.927-4.865 5l-0.007 0zM10.74 7c0.167 0.286 0.266 0.63 0.266 0.996 0 0.374-0.103 0.724-0.281 1.023l0.005-0.009c-1.549 0.13-2.757 1.419-2.757 2.99 0 1.657 1.343 3 3 3 0.009 0 0.019-0 0.028-0l-0.001 0h4c1.657 0 3-1.343 3-3s-1.343-3-3-3v0h-0.080c0.053-0.301 0.083-0.647 0.083-1s-0.030-0.699-0.088-1.036l0.005 0.036h0.080c2.761 0 5 2.239 5 5s-2.239 5-5 5v0h-4c-0.039 0.001-0.084 0.002-0.13 0.002-2.762 0-5.002-2.239-5.002-5.002 0-2.717 2.166-4.927 4.865-5l0.007-0z"></path>
    </symbol>
    <symbol id="icon-list" viewBox="0 0 20 20">
      <title>list</title>
      <path
        d="M1 4h2v2h-2v-2zM5 4h14v2h-14v-2zM1 9h2v2h-2v-2zM5 9h14v2h-14v-2zM1 14h2v2h-2v-2zM5 14h14v2h-14v-2z"></path>
    </symbol>
    <symbol id="icon-list-add" viewBox="0 0 20 20">
      <title>list-add</title>
      <path
        d="M15 9h-3v2h3v3h2v-3h3v-2h-3v-3h-2v3zM0 3h10v2h-10v-2zM0 11h10v2h-10v-2zM0 7h10v2h-10v-2zM0 15h10v2h-10v-2z"></path>
    </symbol>
    <symbol id="icon-list-bullet" viewBox="0 0 20 20">
      <title>list-bullet</title>
      <path
        d="M1 4h2v2h-2v-2zM5 4h14v2h-14v-2zM1 9h2v2h-2v-2zM5 9h14v2h-14v-2zM1 14h2v2h-2v-2zM5 14h14v2h-14v-2z"></path>
    </symbol>
    <symbol id="icon-load-balancer" viewBox="0 0 20 20">
      <title>load-balancer</title>
      <path
        d="M17 12h-6v4h1v4h-4v-4h1v-4h-6v4h1v4h-4v-4h1v-4c0-1.105 0.895-2 2-2v0h6v-4h-2v-6h6v6h-2v4h6c1.105 0 2 0.895 2 2v0 4h1v4h-4v-4h1v-4z"></path>
    </symbol>
    <symbol id="icon-location" viewBox="0 0 20 20">
      <title>location</title>
      <path
        d="M10 20s-7-9.13-7-13c0-3.866 3.134-7 7-7s7 3.134 7 7v0c0 3.87-7 13-7 13zM10 9c1.105 0 2-0.895 2-2s-0.895-2-2-2v0c-1.105 0-2 0.895-2 2s0.895 2 2 2v0z"></path>
    </symbol>
    <symbol id="icon-location-current" viewBox="0 0 20 20">
      <title>location-current</title>
      <path d="M0 0l20 8-8 4-2 8z"></path>
    </symbol>
    <symbol id="icon-location-food" viewBox="0 0 20 20">
      <title>location-food</title>
      <path
        d="M18 11v7c0 1.105-0.895 2-2 2s-2-0.895-2-2v0-5h-2v-10c0-1.657 1.343-3 3-3v0h3v11zM4 10c-1.105 0-2-0.895-2-2v0-7c0-0.552 0.448-1 1-1s1 0.448 1 1v0 4h1v-4c0-0.552 0.448-1 1-1s1 0.448 1 1v0 4h1v-4c0-0.552 0.448-1 1-1s1 0.448 1 1v0 7c0 1.105-0.895 2-2 2v0 8c0 1.105-0.895 2-2 2s-2-0.895-2-2v0-8z"></path>
    </symbol>
    <symbol id="icon-location-gas-station" viewBox="0 0 20 20">
      <title>location-gas-station</title>
      <path
        d="M13 18h1v2h-14v-2h1v-16c0-1.1 0.9-2 2-2h8c1.105 0 2 0.895 2 2v0 16zM3 2v6h8v-6h-8zM13 10h1c1.105 0 2 0.895 2 2v0 3c0 0.552 0.448 1 1 1s1-0.448 1-1v0-5l-2-2v-2l-2-2 1-1 5 5v7c0 1.657-1.343 3-3 3s-3-1.343-3-3v0-3h-1v-2z"></path>
    </symbol>
    <symbol id="icon-mood-neutral-outline" viewBox="0 0 20 20">
      <title>mood-neutral-outline</title>
      <path
        d="M10 20c-5.523 0-10-4.477-10-10s4.477-10 10-10v0c5.523 0 10 4.477 10 10s-4.477 10-10 10v0zM10 18c4.418 0 8-3.582 8-8s-3.582-8-8-8v0c-4.418 0-8 3.582-8 8s3.582 8 8 8v0zM6.5 9c-0.828 0-1.5-0.672-1.5-1.5s0.672-1.5 1.5-1.5v0c0.828 0 1.5 0.672 1.5 1.5s-0.672 1.5-1.5 1.5v0zM13.5 9c-0.828 0-1.5-0.672-1.5-1.5s0.672-1.5 1.5-1.5v0c0.828 0 1.5 0.672 1.5 1.5s-0.672 1.5-1.5 1.5v0zM7 13h6c0.552 0 1 0.448 1 1s-0.448 1-1 1v0h-6c-0.552 0-1-0.448-1-1s0.448-1 1-1v0z"></path>
    </symbol>
    <symbol id="icon-mood-neutral-solid" viewBox="0 0 20 20">
      <title>mood-neutral-solid</title>
      <path
        d="M10 20c-5.523 0-10-4.477-10-10s4.477-10 10-10v0c5.523 0 10 4.477 10 10s-4.477 10-10 10v0zM6.5 9c0.828 0 1.5-0.672 1.5-1.5s-0.672-1.5-1.5-1.5v0c-0.828 0-1.5 0.672-1.5 1.5s0.672 1.5 1.5 1.5v0zM13.5 9c0.828 0 1.5-0.672 1.5-1.5s-0.672-1.5-1.5-1.5v0c-0.828 0-1.5 0.672-1.5 1.5s0.672 1.5 1.5 1.5v0zM7 13c-0.552 0-1 0.448-1 1s0.448 1 1 1v0h6c0.552 0 1-0.448 1-1s-0.448-1-1-1v0h-6z"></path>
    </symbol>
    <symbol id="icon-mood-sad-outline" viewBox="0 0 20 20">
      <title>mood-sad-outline</title>
      <path
        d="M10 20c-5.523 0-10-4.477-10-10s4.477-10 10-10v0c5.523 0 10 4.477 10 10s-4.477 10-10 10v0zM10 18c4.418 0 8-3.582 8-8s-3.582-8-8-8v0c-4.418 0-8 3.582-8 8s3.582 8 8 8v0zM6.5 9c-0.828 0-1.5-0.672-1.5-1.5s0.672-1.5 1.5-1.5v0c0.828 0 1.5 0.672 1.5 1.5s-0.672 1.5-1.5 1.5v0zM13.5 9c-0.828 0-1.5-0.672-1.5-1.5s0.672-1.5 1.5-1.5v0c0.828 0 1.5 0.672 1.5 1.5s-0.672 1.5-1.5 1.5v0zM15.66 15h-11.32c0.846-2.355 3.060-4.009 5.66-4.009s4.814 1.654 5.647 3.967l0.013 0.042z"></path>
    </symbol>
    <symbol id="icon-mood-sad-solid" viewBox="0 0 20 20">
      <title>mood-sad-solid</title>
      <path
        d="M10 20c-5.523 0-10-4.477-10-10s4.477-10 10-10v0c5.523 0 10 4.477 10 10s-4.477 10-10 10v0zM6.5 9c0.828 0 1.5-0.672 1.5-1.5s-0.672-1.5-1.5-1.5v0c-0.828 0-1.5 0.672-1.5 1.5s0.672 1.5 1.5 1.5v0zM13.5 9c0.828 0 1.5-0.672 1.5-1.5s-0.672-1.5-1.5-1.5v0c-0.828 0-1.5 0.672-1.5 1.5s0.672 1.5 1.5 1.5v0zM15.66 15c-0.846-2.355-3.060-4.009-5.66-4.009s-4.814 1.654-5.647 3.967l-0.013 0.042h11.32z"></path>
    </symbol>
    <symbol id="icon-mouse" viewBox="0 0 20 20">
      <title>mouse</title>
      <path
        d="M4 9v-3c0-0.001 0-0.003 0-0.004 0-2.96 2.144-5.42 4.964-5.911l0.036-0.005v8.92h-5zM4 11v3c0 3.314 2.686 6 6 6s6-2.686 6-6v0-3h-12zM16 9v-3c0-0.001 0-0.003 0-0.004 0-2.96-2.144-5.42-4.964-5.911l-0.036-0.005v8.92h5z"></path>
    </symbol>
    <symbol id="icon-music-album" viewBox="0 0 20 20">
      <title>music-album</title>
      <path
        d="M0 0h20v20h-20v-20zM10 18c4.418 0 8-3.582 8-8s-3.582-8-8-8v0c-4.418 0-8 3.582-8 8s3.582 8 8 8v0zM10 13c-1.657 0-3-1.343-3-3s1.343-3 3-3v0c1.657 0 3 1.343 3 3s-1.343 3-3 3v0z"></path>
    </symbol>
    <symbol id="icon-music-artist" viewBox="0 0 20 20">
      <title>music-artist</title>
      <path
        d="M15.75 8l-3.74-3.75c-0.006-0.083-0.010-0.18-0.010-0.277 0-2.204 1.786-3.99 3.99-3.99 1.111 0 2.116 0.454 2.839 1.187l0 0c0.73 0.725 1.182 1.729 1.182 2.839 0 2.209-1.791 4-4 4-0.092 0-0.183-0.003-0.274-0.009l0.012 0.001zM1.85 15.3l9.2-9.19 2.83 2.83-9.2 9.2-2.82-2.84zM0.45 18.13l2.11-2.12 1.42 1.42-2.12 2.12-1.42-1.42zM10 15l2-2v7h-2v-5z"></path>
    </symbol>
    <symbol id="icon-music-notes" viewBox="0 0 20 20">
      <title>music-notes</title>
      <path
        d="M20 2.5v-2.5l-14 2v12.17c-0.297-0.108-0.639-0.17-0.996-0.17-0.002 0-0.003 0-0.005 0h-2c-1.657 0-3 1.343-3 3s1.343 3 3 3v0h2c1.657 0 3-1.343 3-3v0-11.29l10-1.41v7.88c-0.297-0.108-0.639-0.17-0.996-0.17-0.002 0-0.003 0-0.005 0h-2c-1.657 0-3 1.343-3 3s1.343 3 3 3h2c1.657 0 3-1.343 3-3v0-12.51z"></path>
    </symbol>
    <symbol id="icon-music-playlist" viewBox="0 0 20 20">
      <title>music-playlist</title>
      <path
        d="M16 17c0 1.657-1.343 3-3 3v0h-2c-1.657 0-3-1.343-3-3s1.343-3 3-3v0h2c0.001 0 0.003 0 0.004 0 0.357 0 0.699 0.062 1.016 0.177l-0.021-0.007v-13.17l6-1v4l-4 0.67v12.33zM0 3h12v2h-12v-2zM0 7h12v2h-12v-2zM0 11h12v2h-12v-2zM0 15h6v2h-6v-2z"></path>
    </symbol>
    <symbol id="icon-navigation-more" viewBox="0 0 20 20">
      <title>navigation-more</title>
      <path
        d="M4 12c-1.105 0-2-0.895-2-2s0.895-2 2-2v0c1.105 0 2 0.895 2 2s-0.895 2-2 2v0zM10 12c-1.105 0-2-0.895-2-2s0.895-2 2-2v0c1.105 0 2 0.895 2 2s-0.895 2-2 2v0zM16 12c-1.105 0-2-0.895-2-2s0.895-2 2-2v0c1.105 0 2 0.895 2 2s-0.895 2-2 2v0z"></path>
    </symbol>
    <symbol id="icon-network" viewBox="0 0 20 20">
      <title>network</title>
      <path
        d="M10 20c-5.523 0-10-4.477-10-10s4.477-10 10-10v0c5.523 0 10 4.477 10 10s-4.477 10-10 10v0zM17.75 12c0.161-0.6 0.254-1.289 0.254-2s-0.093-1.4-0.266-2.056l0.013 0.056h-3.82c0.044 0.598 0.070 1.296 0.070 2s-0.025 1.402-0.075 2.093l0.005-0.093h3.82zM16.93 14h-3.22c-0.186 1.31-0.518 2.493-0.985 3.605l0.035-0.095c1.782-0.67 3.226-1.9 4.15-3.472l0.020-0.038zM8.080 12h3.84c0.052-0.599 0.081-1.296 0.081-2s-0.030-1.401-0.088-2.090l0.006 0.090h-3.84c-0.052 0.599-0.081 1.296-0.081 2s0.030 1.401 0.088 2.090l-0.006-0.090zM8.33 14c0.41 2.4 1.13 4 1.67 4s1.26-1.6 1.67-4h-3.34zM2.25 12h3.82c-0.044-0.598-0.070-1.296-0.070-2s0.025-1.402 0.075-2.093l-0.005 0.093h-3.82c-0.161 0.6-0.254 1.289-0.254 2s0.093 1.4 0.266 2.056l-0.013-0.056zM3.070 14c0.944 1.61 2.388 2.84 4.115 3.492l0.055 0.018c-0.42-0.96-0.74-2.16-0.95-3.51h-3.22zM16.93 6c-0.944-1.61-2.388-2.84-4.115-3.492l-0.055-0.018c0.42 0.96 0.74 2.16 0.95 3.51h3.22zM8.33 6h3.34c-0.41-2.4-1.13-4-1.67-4s-1.26 1.6-1.67 4zM3.070 6h3.22c0.2-1.35 0.53-2.55 0.95-3.51-1.782 0.67-3.226 1.9-4.15 3.472l-0.020 0.038z"></path>
    </symbol>
    <symbol id="icon-playlist" viewBox="0 0 20 20">
      <title>playlist</title>
      <path
        d="M16 17c0 1.657-1.343 3-3 3v0h-2c-1.657 0-3-1.343-3-3s1.343-3 3-3v0h2c0.001 0 0.003 0 0.004 0 0.357 0 0.699 0.062 1.016 0.177l-0.021-0.007v-13.17l6-1v4l-4 0.67v12.33zM0 3h12v2h-12v-2zM0 7h12v2h-12v-2zM0 11h12v2h-12v-2zM0 15h6v2h-6v-2z"></path>
    </symbol>
    <symbol id="icon-plugin" viewBox="0 0 20 20">
      <title>plugin</title>
      <path
        d="M20 14v4c0 1.105-0.895 2-2 2v0h-4v-2c0-1.105-0.895-2-2-2v0c-1.105 0-2 0.895-2 2v0 2h-4c-1.105 0-2-0.895-2-2v0-4h-2c-1.105 0-2-0.895-2-2v0c0-1.105 0.895-2 2-2v0h2v-4c0-1.1 0.9-2 2-2h4v-2c0-1.105 0.895-2 2-2v0c1.105 0 2 0.895 2 2v0 2h4c1.105 0 2 0.895 2 2v0 4h-2c-1.105 0-2 0.895-2 2v0c0 1.105 0.895 2 2 2v0h2z"></path>
    </symbol>
    <symbol id="icon-portfolio" viewBox="0 0 20 20">
      <title>portfolio</title>
      <path
        d="M9 12h-8v6c0 1.105 0.895 2 2 2v0h14c1.105 0 2-0.895 2-2v0-6h-8v2h-2v-2zM9 11h-9v-6c0-1.1 0.9-2 2-2h4v-1c0-1.105 0.895-2 2-2v0h4c1.105 0 2 0.895 2 2v0 1h4c1.105 0 2 0.895 2 2v0 6h-9v-2h-2v2zM12 3v-1h-4v1h4z"></path>
    </symbol>
    <symbol id="icon-printer" viewBox="0 0 20 20">
      <title>printer</title>
      <path d="M4 16h-4v-10h20v10h-4v4h-12v-4zM6 12v6h8v-6h-8zM4 0h12v5h-12v-5zM2 8v2h2v-2h-2zM6 8v2h2v-2h-2z"></path>
    </symbol>
    <symbol id="icon-pylon" viewBox="0 0 20 20">
      <title>pylon</title>
      <path
        d="M17.4 18h2.6v2h-20v-2h2.6l5.4-18h4l5.4 18zM14.2 14h-8.4l-1.2 4h10.8l-1.2-4zM11.8 6h-3.6l-1.2 4h6l-1.2-4z"></path>
    </symbol>
    <symbol id="icon-question" viewBox="0 0 20 20">
      <title>question</title>
      <path
        d="M10 20c-5.523 0-10-4.477-10-10s4.477-10 10-10v0c5.523 0 10 4.477 10 10s-4.477 10-10 10v0zM12 7c0 0.28-0.21 0.8-0.42 1l-1.58 1.58c-0.57 0.58-1 1.6-1 2.42v1h2v-1c0-0.29 0.21-0.8 0.42-1l1.58-1.58c0.57-0.58 1-1.6 1-2.42 0-2.209-1.791-4-4-4s-4 1.791-4 4v0h2c0-1.105 0.895-2 2-2s2 0.895 2 2v0zM9 15v2h2v-2h-2z"></path>
    </symbol>
    <symbol id="icon-queue" viewBox="0 0 20 20">
      <title>queue</title>
      <path d="M0 2h20v4h-20v-4zM0 10h20v2h-20v-2zM0 16h20v2h-20v-2z"></path>
    </symbol>
    <symbol id="icon-radar" viewBox="0 0 20 20">
      <title>radar</title>
      <path
        d="M12 10c-0.005 1.101-0.898 1.992-2 1.992-0.55 0-1.049-0.222-1.41-0.582l0 0c-0.359-0.362-0.582-0.86-0.582-1.41 0-1.102 0.891-1.995 1.991-2h0v-8c0.009-0 0.019-0 0.030-0 5.506 0 9.97 4.464 9.97 9.97 0 0.011-0 0.021-0 0.032v-0.002h-8zM19.9 11.41c-0.715 4.883-4.875 8.59-9.9 8.59-5.523 0-10-4.477-10-10 0-5.025 3.707-9.185 8.536-9.894l0.054-0.007v2.030c-3.768 0.696-6.584 3.956-6.584 7.874 0 4.418 3.582 8 8 8 3.918 0 7.178-2.816 7.866-6.534l0.008-0.049h2.020zM15.83 11.41c-0.662 2.648-3.020 4.579-5.829 4.579-3.314 0-6-2.686-6-6 0-2.809 1.931-5.168 4.538-5.821l0.041-0.009v2.1c-1.523 0.585-2.583 2.036-2.583 3.734 0 1.109 0.453 2.113 1.183 2.836l0 0c0.723 0.719 1.719 1.163 2.82 1.163 1.7 0 3.152-1.060 3.731-2.555l0.009-0.027h2.1z"></path>
    </symbol>
    <symbol id="icon-radarcopy2" viewBox="0 0 20 20">
      <title>radarcopy2</title>
      <path
        d="M12 10c-0.005 1.101-0.898 1.992-2 1.992-0.55 0-1.049-0.222-1.41-0.582l0 0c-0.359-0.362-0.582-0.86-0.582-1.41 0-1.102 0.891-1.995 1.991-2h0v-8c0.009-0 0.019-0 0.030-0 5.506 0 9.97 4.464 9.97 9.97 0 0.011-0 0.021-0 0.032v-0.002h-8zM19.9 11.41c-0.715 4.883-4.875 8.59-9.9 8.59-5.523 0-10-4.477-10-10 0-5.025 3.707-9.185 8.536-9.894l0.054-0.007v2.030c-3.768 0.696-6.584 3.956-6.584 7.874 0 4.418 3.582 8 8 8 3.918 0 7.178-2.816 7.866-6.534l0.008-0.049h2.020zM15.83 11.41c-0.662 2.648-3.020 4.579-5.829 4.579-3.314 0-6-2.686-6-6 0-2.809 1.931-5.168 4.538-5.821l0.041-0.009v2.1c-1.523 0.585-2.583 2.036-2.583 3.734 0 1.109 0.453 2.113 1.183 2.836l0 0c0.723 0.719 1.719 1.163 2.82 1.163 1.7 0 3.152-1.060 3.731-2.555l0.009-0.027h2.1z"></path>
    </symbol>
    <symbol id="icon-radio" viewBox="0 0 20 20">
      <title>radio</title>
      <path
        d="M20 9v9c0 1.105-0.895 2-2 2v0h-16c-1.105 0-2-0.895-2-2v0-10c0-1.1 0.9-2 2-2h13.8l-15.060-4.030 0.52-1.94 18.74 5.030v3.94zM15 18c1.657 0 3-1.343 3-3s-1.343-3-3-3v0c-1.657 0-3 1.343-3 3s1.343 3 3 3v0zM2 8v2h16v-2h-16zM3.5 18c0.828 0 1.5-0.672 1.5-1.5s-0.672-1.5-1.5-1.5v0c-0.828 0-1.5 0.672-1.5 1.5s0.672 1.5 1.5 1.5v0zM8.5 18c0.828 0 1.5-0.672 1.5-1.5s-0.672-1.5-1.5-1.5v0c-0.828 0-1.5 0.672-1.5 1.5s0.672 1.5 1.5 1.5v0zM15 17c-1.105 0-2-0.895-2-2s0.895-2 2-2v0c1.105 0 2 0.895 2 2s-0.895 2-2 2v0z"></path>
    </symbol>
    <symbol id="icon-refresh" viewBox="0 0 20 20">
      <title>refresh</title>
      <path
        d="M10 3v2c-0.003 0-0.006 0-0.009 0-2.761 0-5 2.239-5 5 0 1.383 0.561 2.635 1.469 3.54l0 0-1.41 1.41c-1.267-1.267-2.051-3.017-2.051-4.95 0-3.866 3.134-7 7-7 0 0 0 0 0.001 0h-0zM14.95 5.050c1.267 1.267 2.051 3.017 2.051 4.95 0 3.866-3.134 7-7 7-0 0-0 0-0.001 0h0v-2c0.003 0 0.006 0 0.009 0 2.761 0 5-2.239 5-5 0-1.383-0.561-2.635-1.469-3.54l-0-0 1.41-1.41zM10 20l-4-4 4-4v8zM10 8v-8l4 4-4 4z"></path>
    </symbol>
    <symbol id="icon-shuffle" viewBox="0 0 20 20">
      <title>shuffle</title>
      <path
        d="M6.59 12.83l-2.19 2.17c-0.58 0.58-1.59 1-2.4 1h-2v-2h2c0.29 0 0.8-0.2 1-0.41l2.17-2.18 1.42 1.42zM16 4v-3l4 4-4 4v-3h-2c-0.29 0-0.8 0.2-1 0.41l-2.17 2.18-1.43-1.42 2.2-2.17c0.58-0.58 1.59-1 2.41-1h2zM16 14v-3l4 4-4 4v-3h-2c-0.82 0-1.83-0.42-2.41-1l-8.6-8.59c-0.19-0.2-0.69-0.41-0.99-0.41h-2v-2h2c0.82 0 1.83 0.42 2.41 1l8.6 8.59c0.2 0.2 0.7 0.41 0.99 0.41h2z"></path>
    </symbol>
    <symbol id="icon-stand-by" viewBox="0 0 20 20">
      <title>stand-by</title>
      <path
        d="M4.16 4.16l1.42 1.42c-1.585 1.292-2.588 3.244-2.588 5.43 0 3.86 3.13 6.99 6.99 6.99 0.006 0 0.013 0 0.019-0h-0.001c3.862-0.006 6.99-3.137 6.99-7 0-2.18-0.996-4.127-2.558-5.41l-0.012-0.010 1.42-1.42c1.936 1.661 3.155 4.11 3.155 6.844 0 4.971-4.029 9-9 9s-9-4.029-9-9c0-2.734 1.219-5.183 3.143-6.834l0.012-0.010zM9 0h2v8h-2v-8z"></path>
    </symbol>
    <symbol id="icon-star-full" viewBox="0 0 20 20">
      <title>star-full</title>
      <path
        d="M10 15l-5.878 3.090 1.123-6.545-4.756-4.635 6.572-0.955 2.939-5.955 2.939 5.955 6.572 0.955-4.756 4.635 1.123 6.545z"></path>
    </symbol>
    <symbol id="icon-station" viewBox="0 0 20 20">
      <title>station</title>
      <path
        d="M9 11.73c-0.602-0.352-1-0.996-1-1.732 0-1.105 0.895-2 2-2s2 0.895 2 2c0 0.736-0.398 1.38-0.991 1.727l-0.009 0.005v8.27h-2v-8.27zM14.24 14.24l-1.41-1.41c0.733-0.724 1.188-1.729 1.188-2.84 0-2.204-1.786-3.99-3.99-3.99-0.010 0-0.019 0-0.029 0h0.001c-0.001 0-0.002 0-0.003 0-2.209 0-4 1.791-4 4 0 1.105 0.448 2.106 1.173 2.83l0 0-1.41 1.41c-1.084-1.086-1.755-2.585-1.755-4.24 0-3.314 2.686-6 6-6s6 2.686 6 6c0 1.656-0.671 3.155-1.755 4.24l0-0zM17.070 17.070l-1.41-1.41c1.449-1.448 2.345-3.449 2.345-5.659 0-4.418-3.582-8-8-8s-8 3.582-8 8c0 2.21 0.896 4.211 2.345 5.659l0 0-1.42 1.41c-1.81-1.81-2.93-4.31-2.93-7.072 0-5.523 4.477-10 10-10s10 4.477 10 10c0 2.762-1.12 5.262-2.93 7.072l-0 0z"></path>
    </symbol>
    <symbol id="icon-step-backward" viewBox="0 0 20 20">
      <title>step-backward</title>
      <path d="M4 5h3v10h-3v-10zM16 5v10l-9-5 9-5z"></path>
    </symbol>
    <symbol id="icon-step-forward" viewBox="0 0 20 20">
      <title>step-forward</title>
      <path d="M13 5h3v10h-3v-10zM4 5l9 5-9 5v-10z"></path>
    </symbol>
    <symbol id="icon-stethoscope" viewBox="0 0 20 20">
      <title>stethoscope</title>
      <path
        d="M17 10.27v-5.28c0-0.552-0.448-1-1-1s-1 0.448-1 1v0 10.010c0 2.761-2.239 5-5 5s-5-2.239-5-5v0-1.080c-2.856-0.496-5-2.956-5-5.916 0-0.001 0-0.003 0-0.004v0-6c0-1.1 0.9-2 2-2h1c0.552 0 1 0.448 1 1v0c0 0.552-0.448 1-1 1v0h-1v6c0 2.209 1.791 4 4 4s4-1.791 4-4v0-6h-1c-0.552 0-1-0.448-1-1v0c0-0.552 0.448-1 1-1v0h1c1.105 0 2 0.895 2 2v0 6c0 0.001 0 0.003 0 0.004 0 2.96-2.144 5.42-4.964 5.911l-0.036 0.005v1.080c0 1.657 1.343 3 3 3s3-1.343 3-3v0-10c0-1.657 1.343-3 3-3s3 1.343 3 3v0 5.27c0.602 0.352 1 0.996 1 1.732 0 1.105-0.895 2-2 2s-2-0.895-2-2c0-0.736 0.398-1.38 0.991-1.727l0.009-0.005z"></path>
    </symbol>
    <symbol id="icon-store-front" viewBox="0 0 20 20">
      <title>store-front</title>
      <path
        d="M18 9.87v10.13h-16v-10.13c0.301 0.076 0.646 0.12 1.001 0.12 0.732 0 1.42-0.185 2.022-0.511l-0.022 0.011v4.51h10v-4.5c0.576 0.31 1.261 0.492 1.988 0.492 0.359 0 0.708-0.045 1.042-0.128l-0.029 0.006zM3 0h4l-0.67 6.030c-0.231 1.663-1.627 2.935-3.326 2.97l-0.004 0c-1.66 0-2.58-1.27-2.050-2.85l2.050-6.15zM8 0h4l0.7 6.3c0.17 1.5-0.91 2.7-2.42 2.7h-0.56c-0.018 0.001-0.040 0.001-0.062 0.001-1.314 0-2.38-1.066-2.38-2.38 0-0.113 0.008-0.224 0.023-0.333l-0.001 0.013 0.7-6.3zM13 0h4l2.050 6.15c0.53 1.58-0.4 2.85-2.050 2.85-1.705-0.031-3.103-1.305-3.328-2.952l-0.002-0.018-0.67-6.030z"></path>
    </symbol>
    <symbol id="icon-stroke-width" viewBox="0 0 20 20">
      <title>stroke-width</title>
      <path d="M0 0h20v5h-20v-5zM0 7h20v4h-20v-4zM0 13h20v3h-20v-3zM0 18h20v2h-20v-2z"></path>
    </symbol>
    <symbol id="icon-subdirectory-left" viewBox="0 0 20 20">
      <title>subdirectory-left</title>
      <path d="M18 12v1h-10v5l-6-6 6-6v5h8v-9h2z"></path>
    </symbol>
    <symbol id="icon-subdirectory-right" viewBox="0 0 20 20">
      <title>subdirectory-right</title>
      <path d="M3.5 13h8.5v5l6-6-6-6v5h-8v-9h-2v11z"></path>
    </symbol>
    <symbol id="icon-travel" viewBox="0 0 20 20">
      <title>travel</title>
      <path
        d="M14 5h2v14h-12v-14h2v-1c0-1.105 0.895-2 2-2v0h4c1.105 0 2 0.895 2 2v0 1zM17 5h1c1.105 0 2 0.895 2 2v0 10c0 1.105-0.895 2-2 2v0h-1v-14zM3 5v14h-1c-1.105 0-2-0.895-2-2v0-10c0-1.1 0.9-2 2-2h1zM8 4v1h4v-1h-4z"></path>
    </symbol>
    <symbol id="icon-travel-bus" viewBox="0 0 20 20">
      <title>travel-bus</title>
      <path
        d="M13 18h-6v1c0 0.552-0.448 1-1 1v0h-1c-0.552 0-1-0.448-1-1v0-1c-1.105 0-2-0.895-2-2v0-14c0-1.1 0.9-2 2-2h12c1.105 0 2 0.895 2 2v0 14c0 1.105-0.895 2-2 2v0 1c0 0.552-0.448 1-1 1v0h-1c-0.552 0-1-0.448-1-1v0-1zM4 5v6h5v-6h-5zM11 5v6h5v-6h-5zM5 2v1h10v-1h-10zM5.5 16c0.828 0 1.5-0.672 1.5-1.5s-0.672-1.5-1.5-1.5v0c-0.828 0-1.5 0.672-1.5 1.5s0.672 1.5 1.5 1.5v0zM14.5 16c0.828 0 1.5-0.672 1.5-1.5s-0.672-1.5-1.5-1.5v0c-0.828 0-1.5 0.672-1.5 1.5s0.672 1.5 1.5 1.5v0z"></path>
    </symbol>
    <symbol id="icon-travel-car" viewBox="0 0 20 20">
      <title>travel-car</title>
      <path
        d="M2 14v-3h-1c-0.552 0-1-0.448-1-1v0c0-0.552 0.448-1 1-1v0h1l4-7h8l4 7h1c0.552 0 1 0.448 1 1v0c0 0.552-0.448 1-1 1v0h-1v6c0 0.552-0.448 1-1 1v0h-1c-0.552 0-1-0.448-1-1v0-1h-10v1c0 0.552-0.448 1-1 1v0h-1c-0.552 0-1-0.448-1-1v0-3zM15.86 9l-2.86-5h-6l-2.86 5h11.72zM5.5 14c0.828 0 1.5-0.672 1.5-1.5s-0.672-1.5-1.5-1.5v0c-0.828 0-1.5 0.672-1.5 1.5s0.672 1.5 1.5 1.5v0zM14.5 14c0.828 0 1.5-0.672 1.5-1.5s-0.672-1.5-1.5-1.5v0c-0.828 0-1.5 0.672-1.5 1.5s0.672 1.5 1.5 1.5v0z"></path>
    </symbol>
    <symbol id="icon-travel-case" viewBox="0 0 20 20">
      <title>travel-case</title>
      <path
        d="M14 5h2v14h-12v-14h2v-1c0-1.105 0.895-2 2-2v0h4c1.105 0 2 0.895 2 2v0 1zM17 5h1c1.105 0 2 0.895 2 2v0 10c0 1.105-0.895 2-2 2v0h-1v-14zM3 5v14h-1c-1.105 0-2-0.895-2-2v0-10c0-1.1 0.9-2 2-2h1zM8 4v1h4v-1h-4z"></path>
    </symbol>
    <symbol id="icon-travel-taxi-cab" viewBox="0 0 20 20">
      <title>travel-taxi-cab</title>
      <path
        d="M12 3h2l4 7h1c0.552 0 1 0.448 1 1v0c0 0.552-0.448 1-1 1v0h-1v6c0 0.552-0.448 1-1 1v0h-1c-0.552 0-1-0.448-1-1v0-1h-10v1c0 0.552-0.448 1-1 1v0h-1c-0.552 0-1-0.448-1-1v0-6h-1c-0.552 0-1-0.448-1-1v0c0-0.552 0.448-1 1-1v0h1l4-7h2v-2h4v2zM15.86 10l-2.86-5h-6l-2.86 5h11.72zM5.5 15c0.828 0 1.5-0.672 1.5-1.5s-0.672-1.5-1.5-1.5v0c-0.828 0-1.5 0.672-1.5 1.5s0.672 1.5 1.5 1.5v0zM14.5 15c0.828 0 1.5-0.672 1.5-1.5s-0.672-1.5-1.5-1.5v0c-0.828 0-1.5 0.672-1.5 1.5s0.672 1.5 1.5 1.5v0z"></path>
    </symbol>
    <symbol id="icon-travel-train" viewBox="0 0 20 20">
      <title>travel-train</title>
      <path
        d="M12 18h-4l-2 2h-3l2-2c-1.105 0-2-0.895-2-2v0-14c0-1.1 0.9-2 2-2h10c1.105 0 2 0.895 2 2v0 14c0 1.105-0.895 2-2 2v0l2 2h-3l-2-2zM5 5v6h10v-6h-10zM6.5 16c0.828 0 1.5-0.672 1.5-1.5s-0.672-1.5-1.5-1.5v0c-0.828 0-1.5 0.672-1.5 1.5s0.672 1.5 1.5 1.5v0zM13.5 16c0.828 0 1.5-0.672 1.5-1.5s-0.672-1.5-1.5-1.5v0c-0.828 0-1.5 0.672-1.5 1.5s0.672 1.5 1.5 1.5v0zM8 2v1h4v-1h-4z"></path>
    </symbol>
    <symbol id="icon-travel-walk" viewBox="0 0 20 20">
      <title>travel-walk</title>
      <path
        d="M11 7l1.44 2.16c0.31 0.47 1.010 0.84 1.57 0.84h2.99v-2h-3l-1.44-2.16c-0.391-0.546-0.854-1.009-1.382-1.388l-0.018-0.012-1.32-0.88c-0.253-0.154-0.558-0.245-0.885-0.245-0.298 0-0.579 0.076-0.824 0.21l0.009-0.004-4.14 2.48v5h2v-4l2-1-3 14h2l2.35-7.65 1.65 1.65v6h2v-8l-2.7-2.7 0.7-2.3zM12 4c1.105 0 2-0.895 2-2s-0.895-2-2-2v0c-1.105 0-2 0.895-2 2s0.895 2 2 2v0z"></path>
    </symbol>
    <symbol id="icon-trophy" viewBox="0 0 20 20">
      <title>trophy</title>
      <path
        d="M15 9c1.657 0 3-1.343 3-3v0h2c0 0 0 0.001 0 0.001 0 2.761-2.239 5-5 5-0.035 0-0.070-0-0.105-0.001l0.005 0c-0.411 1.966-1.934 3.489-3.867 3.894l-0.033 0.006v2.1l5 2v1h-12v-1l5-2v-2.1c-1.966-0.411-3.489-1.934-3.894-3.867l-0.006-0.033h-0.1c-2.761 0-5-2.239-5-5v0h2c0 1.657 1.343 3 3 3v0-5h-3v2h-2v-4h5v-2h10v2h5v4h-2v-2h-3v5z"></path>
    </symbol>
    <symbol id="icon-tuning" viewBox="0 0 20 20">
      <title>tuning</title>
      <path
        d="M17 16v4h-2v-4h-2v-3h6v3h-2zM1 9h6v3h-6v-3zM7 5h6v3h-6v-3zM3 0h2v8h-2v-8zM15 0h2v12h-2v-12zM9 0h2v4h-2v-4zM3 12h2v8h-2v-8zM9 8h2v12h-2v-12z"></path>
    </symbol>
    <symbol id="icon-upload" viewBox="0 0 20 20">
      <title>upload</title>
      <path d="M13 10v6h-6v-6h-5l8-8 8 8h-5zM0 18h20v2h-20v-2z"></path>
    </symbol>
    <symbol id="icon-usb" viewBox="0 0 20 20">
      <title>usb</title>
      <path
        d="M15 8v2h-4v-6h2l-3-4-3 4h2v8h-4v-2.27c0.602-0.352 1-0.996 1-1.732 0-1.105-0.895-2-2-2s-2 0.895-2 2c0 0.736 0.398 1.38 0.991 1.727l0.009 0.005v2.27c0 1.105 0.895 2 2 2v0h4v2.27c-0.602 0.352-1 0.996-1 1.732 0 1.105 0.895 2 2 2s2-0.895 2-2c0-0.736-0.398-1.38-0.991-1.727l-0.009-0.005v-4.27h4c1.105 0 2-0.895 2-2v0-2h1v-4h-4v4h1z"></path>
    </symbol>
    <symbol id="icon-volume-off" viewBox="0 0 20 20">
      <title>volume-off</title>
      <path
        d="M15 8.59l-2.12-2.13-1.42 1.42 2.14 2.12-2.13 2.12 1.42 1.42 2.11-2.14 2.12 2.13 1.42-1.42-2.14-2.11 2.13-2.12-1.42-1.42-2.11 2.14zM4 7h-4v6h4l5 5v-16l-5 5z"></path>
    </symbol>
    <symbol id="icon-volume-up" viewBox="0 0 20 20">
      <title>volume-up</title>
      <path
        d="M5 7h-4v6h4l5 5v-16l-5 5zM16.36 16.36l-1.41-1.41c1.272-1.265 2.059-3.015 2.059-4.95s-0.787-3.685-2.059-4.95l-0-0 1.41-1.41c1.634 1.625 2.645 3.874 2.645 6.36s-1.011 4.735-2.644 6.36l-0 0zM13.54 13.54l-1.42-1.42c0.542-0.543 0.877-1.292 0.877-2.12s-0.335-1.577-0.877-2.12l0 0 1.42-1.42c0.912 0.903 1.477 2.156 1.477 3.54s-0.565 2.637-1.477 3.54l-0 0z"></path>
    </symbol>
    <symbol id="icon-wallet" viewBox="0 0 20 20">
      <title>wallet</title>
      <path
        d="M0 4c0-1.1 0.9-2 2-2h15c0.552 0 1 0.448 1 1v0 1h-16v1h17c0.552 0 1 0.448 1 1v0 10c0 1.105-0.895 2-2 2v0h-16c-1.105 0-2-0.895-2-2v0-12zM16.5 13c0.828 0 1.5-0.672 1.5-1.5s-0.672-1.5-1.5-1.5v0c-0.828 0-1.5 0.672-1.5 1.5s0.672 1.5 1.5 1.5v0z"></path>
    </symbol>
    <symbol id="icon-watch" viewBox="0 0 20 20">
      <title>watch</title>
      <path
        d="M11 9h2v2h-4v-4h2v2zM5.18 15.080c-1.352-1.276-2.193-3.080-2.193-5.080s0.841-3.804 2.19-5.077l0.003-0.003 0.82-4.92h8l0.82 4.92c1.352 1.276 2.193 3.080 2.193 5.080s-0.841 3.804-2.19 5.077l-0.003 0.003-0.82 4.92h-8l-0.82-4.92zM10 15c2.761 0 5-2.239 5-5s-2.239-5-5-5v0c-2.761 0-5 2.239-5 5s2.239 5 5 5v0z"></path>
    </symbol>
    <symbol id="icon-window" viewBox="0 0 20 20">
      <title>window</title>
      <path
        d="M0 3c0-1.1 0.9-2 2-2h16c1.105 0 2 0.895 2 2v0 14c0 1.105-0.895 2-2 2v0h-16c-1.105 0-2-0.895-2-2v0-14zM2 5v12h16v-12h-16z"></path>
    </symbol>
    <symbol id="icon-window-new" viewBox="0 0 20 20">
      <title>window-new</title>
      <path
        d="M9 10v-2h2v2h2v2h-2v2h-2v-2h-2v-2h2zM0 3c0-1.1 0.9-2 2-2h16c1.105 0 2 0.895 2 2v0 14c0 1.105-0.895 2-2 2v0h-16c-1.105 0-2-0.895-2-2v0-14zM2 5v12h16v-12h-16z"></path>
    </symbol>
    <symbol id="icon-window-open" viewBox="0 0 20 20">
      <title>window-open</title>
      <path
        d="M0 3c0-1.1 0.9-2 2-2h16c1.105 0 2 0.895 2 2v0 14c0 1.105-0.895 2-2 2v0h-16c-1.105 0-2-0.895-2-2v0-14zM2 5v12h16v-12h-16zM10 8l4 5h-8l4-5z"></path>
    </symbol>
    <symbol id="icon-wrench" viewBox="0 0 20 20">
      <title>wrench</title>
      <path
        d="M6.47 9.8c-0.485 0.172-1.043 0.272-1.625 0.272-2.761 0-5-2.239-5-5 0-0.667 0.131-1.303 0.368-1.885l-0.012 0.033 3.95 3.95 2.82-2.83-3.94-3.93c0.542-0.219 1.171-0.347 1.829-0.347 2.761 0 5 2.239 5 5 0 0.734-0.158 1.43-0.442 2.058l0.013-0.031 10 10-2.83 2.83-10.13-10.12z"></path>
    </symbol>
    <symbol id="icon-yin-yang" viewBox="0 0 20 20">
      <title>yin-yang</title>
      <path
        d="M10 20c-5.523 0-10-4.477-10-10s4.477-10 10-10v0c5.523 0 10 4.477 10 10s-4.477 10-10 10v0zM10 2c-4.418 0-8 3.582-8 8s3.582 8 8 8v0c-2.209 0-4-1.791-4-4s1.791-4 4-4v0c2.209 0 4-1.791 4-4s-1.791-4-4-4v0zM10 15c0.552 0 1-0.448 1-1s-0.448-1-1-1v0c-0.552 0-1 0.448-1 1s0.448 1 1 1v0zM10 7c-0.552 0-1-0.448-1-1s0.448-1 1-1v0c0.552 0 1 0.448 1 1s-0.448 1-1 1v0z"></path>
    </symbol>
    <symbol id="icon-zoom-in" viewBox="0 0 20 20">
      <title>zoom-in</title>
      <path
        d="M12.9 14.32c-1.34 1.049-3.050 1.682-4.908 1.682-4.418 0-8-3.582-8-8s3.582-8 8-8c4.418 0 8 3.582 8 8 0 1.858-0.633 3.567-1.695 4.925l0.013-0.018 5.35 5.33-1.42 1.42-5.33-5.34zM8 14c3.314 0 6-2.686 6-6s-2.686-6-6-6v0c-3.314 0-6 2.686-6 6s2.686 6 6 6v0zM7 7v-2h2v2h2v2h-2v2h-2v-2h-2v-2h2z"></path>
    </symbol>
    <symbol id="icon-zoom-out" viewBox="0 0 20 20">
      <title>zoom-out</title>
      <path
        d="M12.9 14.32c-1.34 1.049-3.050 1.682-4.908 1.682-4.418 0-8-3.582-8-8s3.582-8 8-8c4.418 0 8 3.582 8 8 0 1.858-0.633 3.567-1.695 4.925l0.013-0.018 5.35 5.33-1.42 1.42-5.33-5.34zM8 14c3.314 0 6-2.686 6-6s-2.686-6-6-6v0c-3.314 0-6 2.686-6 6s2.686 6 6 6v0zM5 7h6v2h-6v-2z"></path>
    </symbol>
  </defs>
</svg>
